<svg xmlns="http://www.w3.org/2000/svg" viewBox="0 0 512 512" width="512" height="512"><g fill="#2c93f4"><path d="M410.724 294.244c-55.844 0-101.276 45.435-101.276 101.276 0 55.846 45.435 101.276 101.276 101.276C466.568 496.796 512 451.364 512 395.52c0-55.841-45.432-101.276-101.276-101.276zm0 187.638c-47.621 0-86.362-38.738-86.362-86.362 0-47.619 38.738-86.362 86.362-86.362 47.624 0 86.364 38.74 86.362 86.362-.001 47.621-38.741 86.362-86.362 86.362z"/><path d="M377.441 363.538l-31.989 31.982 31.989 31.992 10.545-10.544-21.445-21.448 21.445-21.44zm66.565 0l-10.544 10.542 21.44 21.44-21.443 21.448 10.55 10.544 31.99-31.992zm-38.266 77.117l-14.352-4.07 24.418-86.078 14.352 4.071zM201.19 184.212h44.68v14.912h-44.68zm44.672 56.812h48.046v14.915h-48.046zm0 28.416h48.046v14.912h-48.046zm0 85.222h48.046v14.912h-48.046zm0 28.416h48.046v14.912h-48.046zm-44.672-170.47h92.723v14.912H201.19zm0 85.248h44.68v14.915h-44.68zm0 28.39h92.723v14.912H201.19zm111.514-85.222h48.056v14.915h-48.056zm0 28.416h92.749v14.912h-92.749zm0-56.832h48.056v14.912h-48.056zM201.19 118.477h14.917v14.912H201.19zm29.824 0h14.915v14.912h-14.915zm29.824 0h14.917v14.912h-14.917z"/><path d="M169.923 158.249h266.806v126.464h14.912V93.627h-296.63v345.229h138.911v-14.912H169.923V158.249zm0-49.71h266.806v34.798H169.923v-34.798zM81.38 421.722c-16.179 0-29.345 13.166-29.345 29.345 0 16.184 13.164 29.353 29.345 29.353 16.179 0 29.345-13.166 29.345-29.353 0-16.179-13.166-29.345-29.345-29.345zm0 43.788c-7.956 0-14.433-6.479-14.433-14.441 0-7.959 6.477-14.433 14.433-14.433s14.433 6.474 14.433 14.433c0 7.965-6.477 14.441-14.433 14.441zm39.401-43.776h14.912v58.698h-14.912zM389.069 73.9c16.184 0 29.348-13.164 29.348-29.345s-13.166-29.35-29.348-29.35c-16.179 0-29.345 13.171-29.345 29.35S372.89 73.9 389.069 73.9zm0-43.784c7.956 0 14.436 6.477 14.436 14.438s-6.482 14.433-14.436 14.433c-7.962 0-14.433-6.472-14.433-14.433s6.474-14.438 14.433-14.438zm-54.298-14.912h14.912V73.9h-14.912zm-24.96 0h14.912V73.9h-14.912zM123.855 325.919a22.946 22.946 0 0 0 6.766-16.328v-62.543c0-6.17-2.404-11.971-6.766-16.335-4.362-4.36-10.163-6.758-16.328-6.758h-7.457v14.912h7.457c2.184 0 4.239.85 5.783 2.391a8.144 8.144 0 0 1 2.399 5.791v62.543a8.112 8.112 0 0 1-2.401 5.783 8.1 8.1 0 0 1-5.781 2.399h-7.457v14.912h7.457c6.173-.001 11.971-2.402 16.328-6.767zM17.311 315.382a8.148 8.148 0 0 1-2.399-5.791v-62.543a8.14 8.14 0 0 1 2.388-5.783 8.14 8.14 0 0 1 5.791-2.399h7.457v-14.912h-7.457c-6.162 0-11.96 2.396-16.338 6.766A22.967 22.967 0 0 0 0 247.048v62.546c0 6.157 2.399 11.955 6.761 16.325a22.931 22.931 0 0 0 16.33 6.766h7.457v-14.912h-7.457a8.12 8.12 0 0 1-5.78-2.391z"/><path d="M29.445 270.874h14.917v14.912H29.445zm26.842 0h14.917v14.912H56.287zm26.844 0h14.92v14.912h-14.92z"/></g></svg>